# xmcd
#
# Track frame offsets: 
#        150
#        50790
#        99952
#        134882
#        177119
#        205765
#        236364
#
# Disc length: 3527 seconds
#
# Revision: 0
# Processed by: cddbd v1.5.2PL0 Copyright (c) Steve Scherf et al.
# Submitted via: ExactAudioCopy v0.99pb5
#
DISCID=5e0dc507
DTITLE=Eric Clapton  - E.C. Is Here - Disc 06 (DJ Copy 68)
DYEAR=1900
DGENRE=
TTITLE0=Blues Power
TTITLE1=Little Wing
TTITLE2=Singin' The Blues
TTITLE3=Badge-All I Have To Do Is Dream
TTITLE4=Steady Rollin' Man
TTITLE5=Layla
TTITLE6=Let It Rain
EXTD=
EXTT0=
EXTT1=
EXTT2=
EXTT3=
EXTT4=
EXTT5=
EXTT6=
PLAYORDER=
